HIERARCHY
ROOT Hips
{
  OFFSET -35.4901 99.2528 17.4586
  CHANNELS 6 Xposition Yposition Zposition Zrotation Xrotation Yrotation
  JOINT LeftUpLeg
  {
    OFFSET 8.64259 1.95398 -2.38835
    CHANNELS 3 Zrotation Xrotation Yrotation
    JOINT LeftLeg
    {
      OFFSET 43.7702 0 0
      CHANNELS 3 Zrotation Xrotation Yrotation
      JOINT LeftFoot
      {
        OFFSET 40.6238 0 0
        CHANNELS 3 Zrotation Xrotation Yrotation
        JOINT LeftToeBase
        {
          OFFSET 12.7242 0 0
          CHANNELS 3 Zrotation Xrotation Yrotation
          End Site
          {
            OFFSET 0 0 0
          }
        }
      }
    }
  }
  JOINT RightUpLeg
  {
    OFFSET -8.2249 1.95398 -2.59336
    CHANNELS 3 Zrotation Xrotation Yrotation
    JOINT RightLeg
    {
      OFFSET 43.5653 0 0
      CHANNELS 3 Zrotation Xrotation Yrotation
      JOINT RightFoot
      {
        OFFSET 40.6238 0 0
        CHANNELS 3 Zrotation Xrotation Yrotation
        JOINT RightToeBase
        {
          OFFSET 12.7242 0 0
          CHANNELS 3 Zrotation Xrotation Yrotation
          End Site
          {
            OFFSET 0 0 0
          }
        }
      }
    }
  }
  JOINT Spine
  {
    OFFSET 0.165834 0.87714 6.61349
    CHANNELS 3 Zrotation Xrotation Yrotation
    JOINT Spine1
    {
      OFFSET 7.38963 1.71661e-005 0
      CHANNELS 3 Zrotation Xrotation Yrotation
      JOINT Spine2
      {
        OFFSET 11.9445 1.14441e-005 0
        CHANNELS 3 Zrotation Xrotation Yrotation
        JOINT Spine3
        {
          OFFSET 14.7254 4.19617e-005 0
          CHANNELS 3 Zrotation Xrotation Yrotation
          JOINT Spine4
          {
            OFFSET 10.9679 0 0
            CHANNELS 3 Zrotation Xrotation Yrotation
            JOINT RightShoulder
            {
              OFFSET 2.46616 -1.6653 3.69651
              CHANNELS 3 Zrotation Xrotation Yrotation
              JOINT RightArm
              {
                OFFSET 13.0012 0 0
                CHANNELS 3 Zrotation Xrotation Yrotation
                JOINT RightForeArm
                {
                  OFFSET 28.7848 1.52588e-005 0
                  CHANNELS 3 Zrotation Xrotation Yrotation
                  JOINT RightHand
                  {
                    OFFSET 26.5688 1.52588e-005 0
                    CHANNELS 3 Zrotation Xrotation Yrotation
                    End Site
                    {
                      OFFSET 0 0 0
                    }
                  }
                }
              }
            }
            JOINT LeftShoulder
            {
              OFFSET 2.38034 -1.29275 -3.7523
              CHANNELS 3 Zrotation Xrotation Yrotation
              JOINT LeftArm
              {
                OFFSET 16.3182 6.10351e-005 0
                CHANNELS 3 Zrotation Xrotation Yrotation
                JOINT LeftForeArm
                {
                  OFFSET 27.0901 0 0
                  CHANNELS 3 Zrotation Xrotation Yrotation
                  JOINT LeftHand
                  {
                    OFFSET 24.5451 1.52588e-005 0
                    CHANNELS 3 Zrotation Xrotation Yrotation
                    End Site
                    {
                      OFFSET 0 0 0
                    }
                  }
                }
              }
            }
            JOINT Neck
            {
              OFFSET 5.0226 -0.0266342 0
              CHANNELS 3 Zrotation Xrotation Yrotation
              JOINT Head
              {
                OFFSET 6.69364 2.86102e-005 0
                CHANNELS 3 Zrotation Xrotation Yrotation
                End Site
                {
                  OFFSET 0 0 0
                }
              }
            }
          }
        }
      }
    }
  }
}
MOTION
Frames:	15
Frame Time:	0.0416667
-82.1916 95.1646 -84.4316 101.033 -69.2649 98.8982 -172.085 15.7723 92.6676 -42.1745 31.6374 -1.4112 76.9453 8.22116 2.02194 23.0623 4.86393 -6.84747 162.91 1.09672 80.2894 -42.1487 7.08427 1.78396 86.7517 -12.1385 1.36822 25.3642 0.390741 -0.495066 1.13534 8.10137 -90.2661 10.6787 2.13853 -0.724462 -0.99071 2.10459 -0.817925 -23.54 2.25735 -0.04794 -3.52731 2.25736 -0.0479386 88.066 -29.6239 -110.736 32.794 -16.059 5.87066 -28.1836 -15.8901 -65.2727 -27.9907 2.82454 -21.4986 -84.322 -50.8361 87.3623 -6.49268 21.0433 -22.7272 -144.907 -0.4054 -82.1294 -11.6862 0.937845 -16.9117 22.1826 29.9955 -4.01681 -10.6614 29.3549 12.3235 
-82.5021 96.2728 -83.4611 98.6507 -65.3314 97.0407 -172.726 14.1745 93.3895 -38.2139 35.691 -0.531598 74.989 7.4089 2.39623 24.0122 4.55298 -6.58162 162.038 1.27323 80.5699 -40.4164 6.65052 2.82066 85.1784 -11.676 0.696509 25.4814 -0.079721 0.65192 0.958422 8.02277 -90.4049 10.8364 1.72141 -0.965506 -0.833875 1.67724 -1.04034 -23.3774 1.93199 -0.40336 -3.36477 1.93197 -0.403364 88.0922 -30.0887 -110.479 33.7711 -18.1554 5.95284 -22.0418 -23.5257 -53.1385 -26.5832 2.29901 -20.3522 -84.631 -49.6047 86.7469 -6.61463 16.8797 -29.6129 -144.206 -1.08761 -81.3673 -13.3944 1.17019 -17.3272 20.3959 31.8129 -3.835 -10.2866 31.0296 13.4229 
-83.1522 97.3502 -82.5114 96.8026 -62.5402 95.5535 -173.168 12.5033 93.9878 -33.6331 39.1368 0.149082 73.0179 6.64785 3.80005 23.7405 5.25662 -7.59299 161.755 0.897511 80.772 -36.4623 9.38468 3.45047 83.9813 -10.6698 2.47631 24.9222 0.053307 0.393578 0.883255 7.90731 -90.439 11.0663 1.55472 -1.02354 -0.604209 1.50818 -1.09098 -23.1458 1.79043 -0.508854 -3.13312 1.79044 -0.508871 88.0787 -30.9167 -110.15 35.459 -15.8984 6.956 -15.8463 -29.9069 -40.3679 -24.5378 1.73704 -19.292 -84.5679 -48.0689 86.6503 -7.51901 13.8157 -34.8948 -144.486 -1.87935 -80.9584 -14.1766 1.2494 -17.2769 21.1904 32.9044 -4.84522 -11.8422 32.1785 14.2184 
-83.9004 98.0461 -81.3867 96.0058 -60.5086 94.8773 -173.249 10.7808 94.8072 -29.8737 41.3253 0.541758 71.3385 5.86161 3.26218 25.2636 4.16775 -6.25356 161.474 0.12816 80.8558 -31.7473 7.9467 3.70185 81.4924 -10.4614 -0.655987 26.4668 0.680271 -1.39104 0.901252 7.84926 -90.4951 11.1831 1.56367 -1.13908 -0.487447 1.51203 -1.20681 -23.0287 1.83371 -0.616387 -3.01603 1.8337 -0.616377 88.6696 -30.2927 -109.263 37.4954 -13.7157 8.60714 -4.26327 -29.8084 -27.0916 -23.8217 1.72316 -18.8461 -84.6914 -46.8382 86.2985 -10.1463 11.1092 -39.351 -142.277 -2.32466 -80.6267 -14.9488 1.40663 -17.8921 21.4946 33.7795 -4.28057 -12.4413 32.8197 14.1152 
-84.9437 98.1846 -80.37 94.9912 -58.8607 93.5323 -173.263 10.3457 95.4079 -27.9949 42.1592 0.633969 70.628 5.59053 1.56344 26.0706 3.28622 -5.00839 161.489 0.104378 80.5207 -28.7144 8.44197 3.32486 80.8132 -10.3226 0.0927653 27.0766 0.191608 -0.255 0.867275 7.79546 -90.4447 11.2899 1.51889 -1.03657 -0.380638 1.47179 -1.10242 -22.9218 1.76018 -0.53207 -2.90914 1.76017 -0.532076 89.2134 -29.7057 -108.427 39.6855 -12.0891 10.8449 2.18208 -28.3317 -18.9999 -23.2912 1.50519 -17.444 -84.5771 -46.7533 86.4668 -12.0339 9.18833 -42.9356 -139.998 -3.43359 -81.5508 -15.0954 1.52344 -18.7722 21.3209 34.2317 -4.26664 -12.8653 33.186 14.5138 
-86.4546 98.1112 -79.1543 94.5032 -57.6371 92.5272 -173.111 9.90666 96.0055 -26.468 45.2059 0.743784 70.0788 5.8261 4.12956 28.261 3.35227 -5.55764 161.732 -0.159735 80.6261 -26.5995 7.65704 2.8333 78.9674 -9.91875 -0.108953 27.8598 0.20809 -0.412082 0.845314 7.82316 -90.4019 11.2337 1.49539 -0.947615 -0.436795 1.45225 -1.01252 -22.978 1.71104 -0.454282 -2.96533 1.71104 -0.454294 89.9461 -28.7029 -107.374 41.9375 -10.8431 12.495 5.62094 -26.4757 -14.0998 -24.0869 1.39728 -15.986 -85.0491 -47.5701 85.839 -13.1741 7.81711 -46.1287 -137.95 -6.20874 -84.8159 -14.6675 1.52338 -19.271 20.9067 32.5576 -3.52891 -11.4978 31.6116 12.7094 
-88.3276 97.7413 -77.6554 94.2444 -57.0599 90.979 -173.292 8.45212 96.2294 -23.8757 44.4355 1.01185 70.8891 6.0786 2.23136 28.8904 1.74303 -2.96236 161.529 -0.108485 80.2384 -25.7986 8.38061 2.78855 77.8707 -9.02627 2.25137 28.0709 0.635787 -1.57551 0.681508 7.81118 -90.1424 11.2544 1.29009 -0.411166 -0.416009 1.27073 -0.467562 -22.9563 1.354 -0.00437242 -2.94365 1.35397 -0.00438415 90.0239 -28.7345 -107.205 43.7681 -9.52718 13.6965 6.69507 -25.3103 -11.628 -22.3514 1.31591 -16.2547 -84.9983 -48.4 86.0307 -12.8041 6.68698 -47.7653 -137.816 -11.2135 -90.3185 -13.2157 1.35036 -19.4642 19.5731 26.1043 -4.18494 -9.46373 25.9386 9.06682 
-90.7432 97.3254 -75.8495 93.4485 -58.1327 89.5156 -173.44 7.44106 97.0914 -22.0497 42.6349 1.65651 71.6184 6.33163 0.848836 30.7067 0.42417 -0.934856 161.624 -0.123865 81.1233 -24.8097 8.90207 3.18489 77.4181 -8.90702 2.18819 27.9391 0.755714 -1.86703 0.590039 7.78165 -89.9275 11.311 1.20798 0.0244379 -0.359379 1.2079 -0.0287653 -22.8987 1.14477 0.386398 -2.88604 1.1448 0.386407 90.0951 -29.0567 -106.934 45.0355 -9.38895 14.199 7.0335 -26.9557 -11.376 -22.22 1.17029 -15.8189 -84.8068 -49.0845 86.4146 -12.7381 5.43701 -48.1244 -142.416 -18.0553 -99.6386 -12.2956 1.32272 -20.5197 16.8386 16.0823 -3.80276 -6.53123 16.5375 2.87413 
-93.6779 96.7349 -73.5678 93.8615 -61.4051 90.0172 -172.495 5.30761 99.4243 -19.8188 40.1418 1.9671 73.3157 6.87646 0.226649 31.4322 -0.885788 1.32476 162.751 -1.28647 83.2159 -25.0059 7.8454 3.28903 82.1224 -10.9441 1.82945 27.1035 0.740527 -1.69371 0.540244 7.84427 -89.8446 11.1847 1.14749 0.196675 -0.485717 1.15502 0.145972 -23.0242 1.03533 0.532482 -3.01157 1.03532 0.532488 89.9461 -29.309 -107.135 45.509 -9.52742 14.0916 5.75862 -25.639 -12.2471 -21.4642 1.12512 -15.6961 -84.6035 -49.4462 86.7706 -12.1146 4.13885 -44.6412 -143.389 -25.1055 -108.185 -10.4986 1.13253 -21.5739 13.4057 6.53853 -3.19655 -3.66749 7.20318 -2.45243 
-97.0782 95.9444 -71.0767 92.3948 -67.4453 89.5286 -171.508 5.08452 102.144 -21.768 33.7115 2.42753 74.9272 7.11733 -1.65962 33.2026 -2.79019 4.74621 165.422 -1.24381 86.1366 -25.3461 3.87601 2.69031 85.0877 -12.2566 0.937047 23.8926 -0.18237 1.07494 0.597361 7.88978 -89.8809 11.094 1.2444 0.116588 -0.576293 1.24833 0.0616921 -23.1157 1.15182 0.485245 -3.10303 1.15182 0.485243 90.1442 -29.1936 -106.783 45.072 -10.5588 12.3674 6.01064 -24.942 -13.1302 -21.6483 1.15367 -15.5818 -84.7847 -49.8917 86.551 -9.86237 3.79457 -35.3669 -142.446 -29.0156 -111.344 -3.48295 0.0851247 -21.965 11.6425 -0.380283 -1.02473 -1.53654 -0.165128 -8.4432 
-100.584 94.9122 -68.9743 86.0817 -72.3101 84.6461 -172.596 10.9743 103.408 -34.3658 21.7031 3.85675 76.0277 7.57443 -1.62705 34.2462 -2.75883 4.67966 169.708 0.287348 90.4847 -26.8326 4.37876 1.68818 88.3951 -12.6388 2.52684 22.2356 0.00028176 0.839307 0.4076 7.87536 -89.963 11.1234 0.82854 -0.00681472 -0.547254 0.827439 -0.0432895 -23.0844 0.792286 0.242528 -3.07175 0.792281 0.242522 89.4124 -29.5998 -108.082 43.9939 -11.9562 9.81309 5.43735 -24.1531 -13.7104 -21.6168 1.01636 -14.5842 -84.2868 -50.1031 87.3285 -7.38979 7.00794 -22.0961 -145.326 -29.0257 -113.849 -2.26938 -0.107515 -23.0922 13.0629 -4.04636 0.263324 -0.808133 -4.1109 -10.7135 
-103.339 94.804 -66.5619 76.4858 -77.1731 74.9846 -174.727 19.8789 100.355 -52.7342 3.60417 3.91724 75.8589 7.81662 1.88766 22.1953 1.06565 -1.01588 172.574 -0.82455 92.7767 -23.1865 2.54139 0.126586 88.4645 -13.3532 0.561158 20.7087 -1.24962 3.76694 0.466452 8.03223 -89.9954 10.81 0.930932 -0.0773686 -0.860588 0.926615 -0.118265 -23.3984 0.911134 0.206023 -3.38574 0.911138 0.206026 88.506 -29.7634 -109.808 43.2872 -13.1854 6.86037 5.51152 -25.9979 -13.3231 -24.7921 0.878406 -12.8511 -83.3991 -52.186 88.8785 -6.483 14.2131 -10.8799 -150.457 -28.6554 -117.869 -4.08687 0.200567 -23.4343 17.2553 -6.1496 2.30417 -1.38466 -6.6683 -11.9882 
-105.269 94.728 -63.3334 59.0716 -78.9523 56.3932 -175.338 30.3193 93.6478 -66.4127 -0.229491 3.06584 77.3349 8.96813 6.21128 18.9722 4.40948 -5.41974 172.918 -2.77834 92.4238 -17.4432 -1.32128 -0.483026 87.6382 -12.9377 0.12038 19.4716 -1.35823 4.04479 0.740044 8.06916 -89.9497 10.7366 1.49695 -0.0381655 -0.933551 1.49381 -0.104041 -23.4751 1.43919 0.413586 -3.46244 1.43919 0.41358 88.4119 -30.1902 -109.81 43.869 -11.6381 5.13818 5.19567 -25.5016 -14.3934 -27.6748 1.00212 -12.3457 -83.288 -52.6916 89.0898 -11.8695 20.9932 -2.70519 -156.522 -29.9736 -124.231 -6.74004 0.662291 -24.1179 19.7721 -8.66271 2.56384 -1.44319 -9.18937 -11.1172 
-106.9 93.527 -59.3877 30.1886 -79.8668 26.1243 -172.421 39.7323 86.1438 -72.2097 4.27617 0.829615 79.6346 9.41863 2.31557 23.1053 3.76356 -5.18972 173.041 -2.89594 91.4398 -16.3852 -4.443 -1.41366 90.5303 -12.7068 2.78643 17.8085 -0.927746 3.21422 1.26985 8.07174 -89.846 10.732 2.59978 0.0669659 -0.936315 2.60021 -0.0476019 -23.4906 2.45938 0.84568 -3.47796 2.45938 0.845678 88.2945 -29.9492 -110.144 44.225 -7.56564 4.45616 1.76149 -20.7335 -21.3124 -26.453 1.89854 -16.2543 -83.1319 -53.296 89.3739 -19.1409 21.8833 7.95009 -159.538 -28.3862 -126.042 -11.6021 1.57803 -24.7272 22.9426 -10.252 3.08703 -2.99887 -10.7745 -11.3709 
-108.476 91.0627 -55.1944 1.75537 -79.0947 -2.93288 -167.437 48.8544 78.1115 -73.2594 8.05794 -1.98435 81.4296 10.0401 1.91313 25.2042 3.92312 -5.85425 173.605 -1.35837 90.9655 -21.7677 -6.46953 -2.079 97.2351 -15.4021 3.96483 17.9914 -1.43869 4.26129 1.66736 8.32754 -89.8482 10.222 3.39152 0.0123014 -1.44455 3.38878 -0.137153 -24.0129 3.23086 1.03211 -4.00022 3.23087 1.03211 87.2796 -30.7959 -111.745 38.7076 -5.23008 0.136514 -6.05087 -25.3521 -31.5988 -23.1328 2.11523 -20.5281 -82.019 -53.1366 90.9849 -26.9057 14.626 19.8826 -159.564 -24.0387 -122.449 -14.5139 2.1014 -24.7637 28.1433 -10.5247 3.87843 -3.60126 -11.3546 -10.8321 
